# xmcd
#
# Track frame offsets:
#	150
#	25402
#	56267
#	66312
#	79430
#	91508
#	102614
#	111055
#	123537
#	131254
#	146619
#	159363
#	176261
#	195788
#	207667
#	251320
#	276653
#	290934
#	304821
#	316087
#	325689
#	342066
#
# Disc length: 4774 seconds
#
# Revision: 0
# Processed by: cddbd v1.5.2PL0 Copyright (c) Steve Scherf et al.
# Submitted via: EasyCDDAExtractor 16.0.8.2
#
DISCID=3d12a416
DTITLE=Συλλογικός δίσκος - Το δημοτικό τραγούδι είναι εδώ 3.1
DYEAR=2004
DGENRE=Παραδοσιακή
TTITLE0=Ζαχαριάς Σπύρος - Κάτω στα 5 μάρμαρα-Σανταμεριανά-Παρήγγ. στο γάμο
TTITLE1=Ζαχαριάς Σπύρος - Μηλίτσα-Κάτω από μιά μηλιά-Ο ήλιος βασιλεύει
TTITLE2=Μαρίνης Γιώργος - Πάρε, Μαριώ, τη ρόκα σου
TTITLE3=Μαρίνης Γιώργος - Πέρα θέλω να περάσω
TTITLE4=Μαρίνης Γιώργος - Βάτους και αγκάθια
TTITLE5=Μαρίνης Γιώργος - Τώρα το βράδυ-βράδυ
TTITLE6=Μαρίνης Γιώργος - Τρία καλά είναι στο ντουνιά
TTITLE7=Κωνσταντίνου Γιάννης - Παπάκι
TTITLE8=Κωνσταντίνου Γιάννης - Μ' έκαψες, γειτόνισσα
TTITLE9=Φραγκούλη Κική - Πουλάκι ξένο
TTITLE10=Φραγκούλη Κική - Η μαντζουράνα
TTITLE11=Καμπίτσης Δημήτρης - Απόψε η Πούλια μάλωνε
TTITLE12=Καμπίτσης Δημήτρης - Παραπονιάρικα παιδιά
TTITLE13=Νίκα Έλσα - Ιτιά
TTITLE14=Παπαδόπουλος Μπάμπης - Μήλο κόκκινο-Αμάν Μαρία-Τώρα που στήσαν-Στη σκ
TTITLE14=άλα
TTITLE15=Μπρέμπος Σπύρος - Είσαι διαμάντι-Η Θήβα έχει όμορφες-Παπαδ. λεβεντονι
TTITLE15=ά
TTITLE16=Μιχαλόπουλος Πάνος - Σιγά την άμαξα
TTITLE17=Μιχαλόπουλος Πάνος - Μού παρήγγειλε τ' αηδόνι
TTITLE18=Πανούτσος Χρήστος - Στου παπά τα μπαλκονάκια
TTITLE19=Πανούτσος Χρήστος - Εδώ δεν είναι Λιβαδειά
TTITLE20=Μαρουλής Γρηγόρης - Μη με κοιτάς που γέρασα
TTITLE21=Μαρουλής Γρηγόρης - Αγγέλω, κραίνει η μάνα σου
EXTD=
EXTT0=
EXTT1=
EXTT2=
EXTT3=
EXTT4=
EXTT5=
EXTT6=
EXTT7=
EXTT8=
EXTT9=
EXTT10=
EXTT11=
EXTT12=
EXTT13=
EXTT14=
EXTT15=
EXTT16=
EXTT17=
EXTT18=
EXTT19=
EXTT20=
EXTT21=
PLAYORDER=
